<svg id="Layer_1" data-name="Layer 1" xmlns="http://www.w3.org/2000/svg" viewBox="0 0 40 40">
  <defs>
    <style>
      .cls-1 {
        fill: #00243d;
      }

      .cls-2 {
        fill: none;
        stroke: #00243d;
        stroke-miterlimit: 10;
        stroke-width: 1.3px;
      }
    </style>
  </defs>
  <g>
    <path class="cls-1" d="M14.77,16.46a2.83,2.83,0,0,1-1.93.9v1.7H11.6V17.41a11.51,11.51,0,0,1-2.47-.36V15.82a11.67,11.67,0,0,0,1.31.26,8.89,8.89,0,0,0,1.46.11,2.62,2.62,0,0,0,1.62-.38A1.64,1.64,0,0,0,14,14.47a1.79,1.79,0,0,0-.29-1.15,2,2,0,0,0-1-.52l-1.36-.35A4.81,4.81,0,0,1,10,11.92a1.86,1.86,0,0,1-.73-.84A3.59,3.59,0,0,1,9,9.66a2.63,2.63,0,0,1,.59-1.84,3,3,0,0,1,2-.77V5.38h1.24V7a12.45,12.45,0,0,1,1.93.27V8.53c-.32-.07-.72-.15-1.18-.21a9.32,9.32,0,0,0-1.29-.09,2.67,2.67,0,0,0-1.46.36,1.28,1.28,0,0,0-.42,1.07,1.43,1.43,0,0,0,.32,1.07,2.24,2.24,0,0,0,1.14.54l1.2.29a4.32,4.32,0,0,1,1.3.52,1.84,1.84,0,0,1,.74.87,3.77,3.77,0,0,1,.25,1.49A3.13,3.13,0,0,1,14.77,16.46Z"/>
    <circle class="cls-2" cx="12.2" cy="12.2" r="10.7"/>
    <line class="cls-2" x1="19.45" y1="19.45" x2="24.2" y2="24.32"/>
    <rect class="cls-2" x="21.84" y="26.5" width="16.71" height="7.38" rx="0.5" transform="translate(30.19 -12.51) rotate(45)"/>
  </g>
</svg>
