<svg id="Layer_1" data-name="Layer 1" xmlns="http://www.w3.org/2000/svg" viewBox="0 0 40 40">
  <defs>
    <style>
      .cls-1 {
        fill: none;
        stroke: #00243d;
        stroke-miterlimit: 10;
        stroke-width: 1.3px;
      }
    </style>
  </defs>
  <g>
    <g>
      <g>
        <path class="cls-1" d="M37.76,19.9l-1.35-1.35a2.23,2.23,0,0,0-3.15,0l-2.21,2.21-8.43,8.43a1.11,1.11,0,0,0-.33.79v2.87A1.12,1.12,0,0,0,23.4,34h3a1.11,1.11,0,0,0,.79-.33l8.38-8.38,2.21-2.21A2.23,2.23,0,0,0,37.76,19.9Zm-1.17,4.82-5-5"/>
        <path class="cls-1" d="M25.61,26.16V2a.5.5,0,0,0-.5-.5h-23a.5.5,0,0,0-.5.5V38a.5.5,0,0,0,.5.5h14"/>
      </g>
      <path class="cls-1" d="M11.26,38.5h13.1a1.42,1.42,0,0,0,1.42-1.42V34"/>
    </g>
    <line class="cls-1" x1="7.34" y1="9.22" x2="19.86" y2="9.22"/>
    <line class="cls-1" x1="7.34" y1="16.19" x2="19.86" y2="16.19"/>
    <line class="cls-1" x1="7.34" y1="23.16" x2="19.86" y2="23.16"/>
    <line class="cls-1" x1="7.34" y1="30.12" x2="19.86" y2="30.12"/>
  </g>
</svg>
